<?xml version="1.0" standalone="no"?>
<!DOCTYPE svg PUBLIC "-//W3C//DTD SVG 20010904//EN"
 "http://www.w3.org/TR/2001/REC-SVG-20010904/DTD/svg10.dtd">
<svg version="1.0" xmlns="http://www.w3.org/2000/svg"
 width="916.000000pt" height="1280.000000pt" viewBox="0 0 916.000000 1280.000000"
 preserveAspectRatio="xMidYMid meet">
<g transform="translate(0.000000,1280.000000) scale(0.100000,-0.100000)"
fill="#000000" stroke="none">
<path d="M1733 12788 c3 -7 460 -791 1016 -1742 556 -950 1011 -1733 1011
-1738 0 -5 -14 -21 -30 -35 -50 -41 -60 -72 -60 -175 0 -83 3 -97 25 -131 47
-68 39 -67 482 -67 219 0 404 -4 411 -9 9 -5 12 -29 10 -82 l-3 -74 -64 -17
c-186 -50 -311 -179 -330 -338 -4 -33 -10 -63 -14 -66 -3 -4 -61 -15 -129 -25
-843 -126 -1606 -520 -2199 -1136 -1089 -1132 -1372 -2819 -715 -4252 197
-430 455 -791 812 -1141 612 -598 1361 -952 2244 -1062 141 -17 699 -17 840 0
765 94 1424 373 2009 849 147 120 427 403 547 553 453 568 717 1185 820 1920
21 153 30 642 15 810 -6 69 -18 172 -27 230 -237 1634 -1512 2940 -3139 3215
-81 14 -150 27 -155 30 -4 2 -10 33 -12 68 -13 153 -130 282 -308 338 l-55 17
-3 77 c-2 56 1 81 10 86 7 5 186 9 396 9 424 0 430 1 475 64 17 24 23 48 26
109 4 99 -4 139 -34 176 -14 16 -25 34 -25 41 0 6 459 796 1020 1756 561 959
1020 1746 1020 1749 0 3 -380 5 -845 5 -793 0 -846 -1 -860 -17 -8 -10 -289
-493 -624 -1073 -404 -700 -614 -1055 -624 -1055 -11 0 -228 362 -640 1070
l-624 1070 -838 3 c-669 2 -836 0 -832 -10z m2089 -3578 c13 -20 24 -20 853
-20 591 0 844 3 852 11 21 21 43 -30 43 -104 0 -62 -3 -71 -29 -98 l-29 -29
-387 0 c-300 0 -386 3 -389 13 -3 6 -7 24 -10 39 -18 82 -111 77 -125 -8 l-6
-39 -398 -3 -398 -2 -30 29 c-27 27 -29 35 -29 106 0 67 3 79 25 100 29 30 41
31 57 5z m778 -628 c0 -53 23 -82 65 -82 24 0 39 7 54 26 l21 27 0 -24 c-1
-69 -99 -104 -155 -56 -34 29 -45 96 -21 132 22 33 36 24 36 -23z"/>
</g>
</svg>
